<?xml version="1.0" encoding="iso-8859-1"?>
<!-- Generator: Adobe Illustrator 19.0.0, SVG Export Plug-In . SVG Version: 6.00 Build 0)  -->
<svg version="1.1" id="Layer_1" xmlns="http://www.w3.org/2000/svg" xmlns:xlink="http://www.w3.org/1999/xlink" x="0px" y="0px"
	 viewBox="0 0 512 512" style="enable-background:new 0 0 512 512; fill:#6c757d"  xml:space="preserve">
<g>
	<g>
		<path d="M486.4,93.867c-32.879,0-56.943-9.139-80.213-17.98c-20.915-7.945-42.547-16.154-67.695-16.154
			c-26.522,0-53.069,9.097-82.492,28.433c-29.423-19.336-55.97-28.433-82.492-28.433c-25.156,0-46.788,8.209-67.703,16.154
			c-23.262,8.841-47.317,17.98-80.205,17.98c-14.14,0-25.6,11.46-25.6,25.6v307.2c0,14.14,11.46,25.6,25.6,25.6
			c42.274,0,73.395-11.819,98.398-21.316c18.859-7.159,33.758-12.817,49.51-12.817c12.211,0,32.452,3.004,67.132,29.013
			c4.548,3.413,9.958,5.12,15.36,5.12s10.812-1.707,15.36-5.12c34.671-26.01,54.921-29.013,67.132-29.013
			c15.761,0,30.66,5.658,49.519,12.817c24.994,9.498,56.107,21.316,98.389,21.316c14.14,0,25.6-11.46,25.6-25.6v-307.2
			C512,105.327,500.54,93.867,486.4,93.867z M243.2,417.604c-27.887-18.577-49.869-25.071-69.692-25.071
			c-45.5,0-79.642,34.133-147.908,34.133c0-51.2,0-256,0-307.2c68.267,0,102.4-34.133,147.908-34.133
			c19.814,0,41.805,6.502,69.692,25.071V417.604z M486.4,426.667c-68.267,0-102.4-34.133-147.908-34.133
			c-19.814,0-41.805,6.494-69.692,25.071v-307.2c27.887-18.577,49.869-25.071,69.692-25.071c45.5,0,79.642,34.133,147.908,34.133
			C486.4,170.667,486.4,375.467,486.4,426.667z"/>
	</g>
</g>
<g>
	<g>
		<path d="M448,157.867c-18.133,0-34.953-7.646-52.762-15.753c-27.204-12.348-58.001-26.402-93.764-8.499
			c-6.323,3.166-8.883,10.854-5.726,17.178c3.166,6.34,10.846,8.875,17.178,5.726c24.823-12.416,46.549-2.526,71.714,8.9
			c19.516,8.875,39.689,18.048,63.36,18.048c7.074,0,12.8-5.726,12.8-12.8C460.8,163.593,455.074,157.867,448,157.867z"/>
	</g>
</g>
<g>
	<g>
		<path d="M448,226.125c-18.133,0-34.953-7.646-52.762-15.753c-27.204-12.373-58.001-26.402-93.764-8.499
			c-6.323,3.166-8.892,10.846-5.726,17.178c3.166,6.34,10.846,8.849,17.178,5.726c24.823-12.416,46.549-2.526,71.714,8.9
			c19.516,8.875,39.689,18.048,63.36,18.048c7.074,0,12.8-5.726,12.8-12.8S455.074,226.125,448,226.125z"/>
	</g>
</g>
<g>
	<g>
		<path d="M448,294.4c-18.133,0-34.953-7.646-52.762-15.753c-27.204-12.365-58.001-26.402-93.764-8.499
			c-6.323,3.166-8.892,10.846-5.726,17.178c3.166,6.315,10.846,8.892,17.178,5.726c24.823-12.399,46.549-2.526,71.714,8.9
			C404.156,310.827,424.329,320,448,320c7.074,0,12.8-5.726,12.8-12.8S455.074,294.4,448,294.4z"/>
	</g>
</g>
<g>
	<g>
		<path d="M448,362.667c-18.133,0-34.953-7.646-52.762-15.753c-27.204-12.348-58.001-26.402-93.764-8.499
			c-6.323,3.166-8.892,10.846-5.726,17.178c3.166,6.332,10.846,8.849,17.178,5.726c24.823-12.399,46.549-2.534,71.714,8.9
			c19.516,8.875,39.689,18.048,63.36,18.048c7.074,0,12.8-5.726,12.8-12.8C460.8,368.393,455.074,362.667,448,362.667z"/>
	</g>
</g>
<g>
	<g>
		<path d="M210.526,133.615c-35.763-17.903-66.577-3.849-93.764,8.499C98.953,150.212,82.133,157.867,64,157.867
			c-7.074,0-12.8,5.726-12.8,12.8c0,7.074,5.726,12.8,12.8,12.8c23.671,0,43.853-9.173,63.36-18.048
			c25.165-11.426,46.899-21.299,71.714-8.9c6.34,3.149,14.003,0.614,17.178-5.726C219.418,144.469,216.849,136.781,210.526,133.615z
			"/>
	</g>
</g>
<g>
	<g>
		<path d="M210.526,201.882c-35.763-17.903-66.577-3.874-93.764,8.499C98.953,218.479,82.133,226.133,64,226.133
			c-7.074,0-12.8,5.726-12.8,12.8c0,7.074,5.726,12.8,12.8,12.8c23.671,0,43.853-9.173,63.36-18.048
			c25.165-11.426,46.899-21.265,71.714-8.9c6.34,3.123,14.003,0.614,17.178-5.726C219.409,212.727,216.849,205.039,210.526,201.882z
			"/>
	</g>
</g>
<g>
	<g>
		<path d="M210.526,270.157c-35.763-17.903-66.577-3.866-93.764,8.499C98.953,286.754,82.133,294.4,64,294.4
			c-7.074,0-12.8,5.726-12.8,12.8S56.926,320,64,320c23.671,0,43.853-9.173,63.36-18.048c25.165-11.409,46.899-21.274,71.714-8.9
			c6.34,3.166,14.003,0.589,17.178-5.726C219.409,281.003,216.849,273.314,210.526,270.157z"/>
	</g>
</g>
<g>
	<g>
		<path d="M210.526,338.415c-35.763-17.903-66.577-3.849-93.764,8.499C98.953,355.012,82.133,362.667,64,362.667
			c-7.074,0-12.8,5.726-12.8,12.8c0,7.074,5.726,12.8,12.8,12.8c23.671,0,43.853-9.173,63.36-18.048
			c25.165-11.426,46.899-21.291,71.714-8.9c6.34,3.123,14.003,0.597,17.178-5.726C219.409,349.269,216.849,341.581,210.526,338.415z
			"/>
	</g>
</g>
<g>
</g>
<g>
</g>
<g>
</g>
<g>
</g>
<g>
</g>
<g>
</g>
<g>
</g>
<g>
</g>
<g>
</g>
<g>
</g>
<g>
</g>
<g>
</g>
<g>
</g>
<g>
</g>
<g>
</g>
</svg>
