<svg height="512" viewBox="0 0 64 64" width="512" xmlns="http://www.w3.org/2000/svg" xmlns:xlink="http://www.w3.org/1999/xlink"><linearGradient id="New_Gradient_Swatch_1" gradientUnits="userSpaceOnUse" x1="32" x2="32" y1="-1.096" y2="67.01"><stop offset="0" stop-color="#fff33b"/><stop offset=".014" stop-color="#fee72e"/><stop offset=".042" stop-color="#fed51b"/><stop offset=".07" stop-color="#fdca10"/><stop offset=".1" stop-color="#fdc70c"/><stop offset=".4" stop-color="#f3903f"/><stop offset=".8" stop-color="#ed683c"/><stop offset="1" stop-color="#e93e3a"/></linearGradient><linearGradient id="New_Gradient_Swatch_1-2" x1="44" x2="44" xlink:href="#New_Gradient_Swatch_1" y1="-1.096" y2="67.01"/><linearGradient id="New_Gradient_Swatch_1-5" x1="32.5" x2="32.5" xlink:href="#New_Gradient_Swatch_1" y1="-1.096" y2="67.01"/><linearGradient id="New_Gradient_Swatch_1-7" x1="22" x2="22" xlink:href="#New_Gradient_Swatch_1" y1="-1.096" y2="67.01"/><linearGradient id="New_Gradient_Swatch_1-8" x1="14" x2="14" xlink:href="#New_Gradient_Swatch_1" y1="-1.096" y2="67.01"/><g id="Certification"><path d="m61 2h-58a1 1 0 0 0 -1 1v40a1 1 0 0 0 1 1h29.624a.977.977 0 0 0 .468 1.3l2.993 1.444.3 2.161-7.094 7.179a1 1 0 0 0 .515 1.684l2.816.564.567 2.862a1 1 0 0 0 .693.764 1.019 1.019 0 0 0 .288.042 1 1 0 0 0 .711-.3l8.707-8.8a.95.95 0 0 0 .828 0l8.707 8.8a1 1 0 0 0 .711.3 1.019 1.019 0 0 0 .288-.042 1 1 0 0 0 .692-.764l.568-2.862 2.816-.564a1 1 0 0 0 .515-1.684l-7.094-7.179.3-2.161 2.988-1.444a.977.977 0 0 0 .469-1.3h5.624a1 1 0 0 0 1-1v-40a1 1 0 0 0 -1-1zm-5.576 35.291a1 1 0 0 0 -.516-.591l-2.993-1.444-.453-3.288a1 1 0 0 0 -1.162-.848l-3.273.581-2.3-2.394a1.029 1.029 0 0 0 -1.442 0l-2.3 2.394-3.285-.581a1 1 0 0 0 -1.166.848l-.453 3.288-2.988 1.444a.977.977 0 0 0 -.469 1.3h-24.624v-30h48v30h-.624a.993.993 0 0 0 .048-.709zm-20.641 21.666-.331-1.669a1 1 0 0 0 -.785-.786l-1.652-.331 5.253-5.316a.959.959 0 0 0 .436.025l3.273-.581 1.17 1.217zm19.55-2.457a1 1 0 0 0 -.785.786l-.331 1.669-7.364-7.441 1.17-1.217 3.273.581a.971.971 0 0 0 .436-.025l5.253 5.316zm-2.562-15.03 1.329 2.483-2.536 1.223a1 1 0 0 0 -.556.763l-.384 2.79-2.775-.493a1 1 0 0 0 -.9.291l-1.949 2.031-1.952-2.031a1 1 0 0 0 -.721-.306 1.034 1.034 0 0 0 -.175.015l-2.775.493-.384-2.79a1 1 0 0 0 -.556-.763l-2.537-1.224 1.328-2.479a1 1 0 0 0 0-.945l-1.328-2.481 2.536-1.223a1 1 0 0 0 .556-.763l.384-2.79 2.775.493a1 1 0 0 0 .9-.291l1.949-2.031 1.952 2.031a1 1 0 0 0 .9.291l2.775-.493.384 2.79a1 1 0 0 0 .556.763l2.533 1.224-1.328 2.479a1 1 0 0 0 -.001.945zm8.229.53h-5.678l-.536-1 .536-1h2.678a1 1 0 0 0 1-1v-32a1 1 0 0 0 -1-1h-50a1 1 0 0 0 -1 1v32a1 1 0 0 0 1 1h26.678l.536 1-.536 1h-29.678v-38h56z" fill="url(#New_Gradient_Swatch_1)"/><path d="m44 36a5 5 0 1 0 5 5 5.006 5.006 0 0 0 -5-5zm0 8a3 3 0 1 1 3-3 3 3 0 0 1 -3 3z" fill="url(#New_Gradient_Swatch_1-2)"/><path d="m24 10h16v2h-16z" fill="url(#New_Gradient_Swatch_1)"/><path d="m20 14h24v2h-24z" fill="url(#New_Gradient_Swatch_1)"/><path d="m12 20h41v2h-41z" fill="url(#New_Gradient_Swatch_1-5)"/><path d="m12 26h41v2h-41z" fill="url(#New_Gradient_Swatch_1-5)"/><path d="m18 32h8v2h-8z" fill="url(#New_Gradient_Swatch_1-7)"/><path d="m12 32h4v2h-4z" fill="url(#New_Gradient_Swatch_1-8)"/></g></svg>