<?xml version="1.0"?>
<svg xmlns="http://www.w3.org/2000/svg" xmlns:xlink="http://www.w3.org/1999/xlink" viewBox="0 0 64 64" width="512" height="512"><defs><linearGradient id="New_Gradient_Swatch_1" x1="32" y1="-1.096" x2="32" y2="67.01" gradientUnits="userSpaceOnUse"><stop offset="0" stop-color="#fff33b"/><stop offset="0.014" stop-color="#fee72e"/><stop offset="0.042" stop-color="#fed51b"/><stop offset="0.07" stop-color="#fdca10"/><stop offset="0.1" stop-color="#fdc70c"/><stop offset="0.4" stop-color="#f3903f"/><stop offset="0.8" stop-color="#ed683c"/><stop offset="1" stop-color="#e93e3a"/></linearGradient><linearGradient id="New_Gradient_Swatch_1-2" x1="56" y1="-1.096" x2="56" y2="67.01" xlink:href="#New_Gradient_Swatch_1"/><linearGradient id="New_Gradient_Swatch_1-3" x1="27" y1="-1.096" x2="27" y2="67.01" xlink:href="#New_Gradient_Swatch_1"/><linearGradient id="New_Gradient_Swatch_1-4" x1="26.829" y1="-1.096" x2="26.829" y2="67.01" xlink:href="#New_Gradient_Swatch_1"/></defs><g id="Check"><path d="M61,42H48V3a1,1,0,0,0-1-1H15a1,1,0,0,0-1,1V6H11a1,1,0,0,0-1,1V42H6a4,4,0,0,0-2.643,7,3.995,3.995,0,0,0,0,6A4,4,0,0,0,6,62H61a1,1,0,0,0,1-1V43A1,1,0,0,0,61,42ZM16,4H46V42H44V15.014a1,1,0,0,0-.293-.707L35.7,6.293A1,1,0,0,0,34.988,6H16ZM36,9.426,40.573,14H36ZM12,8H34v7a1,1,0,0,0,1,1h7V42H12ZM6,44H60v4H56V47a1,1,0,0,0-1-1H49a1,1,0,0,0-1,1v1H6a2,2,0,0,1,0-4Zm50,6h4v4H56Zm-2-2v8.132l-1.445-.964a1,1,0,0,0-1.11,0L50,56.132V48ZM6,50H48v4H6a2,2,0,0,1,0-4ZM6,60a2,2,0,0,1,0-4H48v2a1,1,0,0,0,1.555.832L52,57.2l2.445,1.63A1,1,0,0,0,56,58V56h4v4Z" style="fill:url(#New_Gradient_Swatch_1)"/><path d="M61,12H58V9a1,1,0,0,0-1-1V5a3,3,0,0,0-6,0V8a1,1,0,0,0-1,1V33a.989.989,0,0,0,.1.444l2.976,6a1,1,0,0,0,.893.556h0a1,1,0,0,0,.892-.55l3.025-6A1,1,0,0,0,58,33V14h2v7h2V13A1,1,0,0,0,61,12Zm-5-2v2H52V10ZM53,5a1,1,0,0,1,2,0V8H53Zm.982,31.764L52.612,34h2.764ZM56,32H52V14h4Z" style="fill:url(#New_Gradient_Swatch_1-2)"/><path d="M27,16A11,11,0,1,0,38,27,11.013,11.013,0,0,0,27,16Zm0,20a9,9,0,1,1,9-9A9.01,9.01,0,0,1,27,36Z" style="fill:url(#New_Gradient_Swatch_1-3)"/><path d="M24,29.586l-2.121-2.121-1.414,1.414,2.828,2.828a1,1,0,0,0,1.414,0l8.485-8.485-1.414-1.414Z" style="fill:url(#New_Gradient_Swatch_1-4)"/></g></svg>
