<?xml version="1.0" encoding="iso-8859-1"?>
<!-- Generator: Adobe Illustrator 19.0.0, SVG Export Plug-In . SVG Version: 6.00 Build 0)  -->
<svg version="1.1" id="Layer_1" xmlns="http://www.w3.org/2000/svg" xmlns:xlink="http://www.w3.org/1999/xlink" x="0px" y="0px"
	 viewBox="0 0 512 512" style="enable-background:new 0 0 512 512;" fill="#6c757d" xml:space="preserve">
<g>
	<g>
		<path d="M440.499,109.909L338.099,7.501C333.303,2.697,326.793,0,320,0H89.6C75.46,0,64,11.46,64,25.6v460.8
			c0,14.14,11.46,25.6,25.6,25.6h332.8c14.14,0,25.6-11.46,25.6-25.6V128.009C448,121.225,445.303,114.714,440.499,109.909z
			 M332.8,38.4l76.792,76.8H332.8V38.4z M422.4,486.4H89.6V25.6h217.6V128c0,7.074,5.726,12.8,12.8,12.8h102.4V486.4z"/>
	</g>
</g>
<g>
	<g>
		<rect x="140.8" y="166.4" width="230.4" height="25.6"/>
	</g>
</g>
<g>
	<g>
		<rect x="140.8" y="217.6" width="230.4" height="25.6"/>
	</g>
</g>
<g>
	<g>
		<rect x="140.8" y="268.8" width="76.8" height="25.6"/>
	</g>
</g>
<g>
	<g>
		<path d="M396.57,428.792l-31.983-55.398c4.105-8.439,6.613-17.792,6.613-27.793c0-35.285-28.715-64-64-64s-64,28.715-64,64
			c0,10.001,2.509,19.354,6.613,27.793L217.822,428.8c-2.586,4.489-2.227,10.086,0.939,14.191c3.14,4.122,8.448,5.965,13.466,4.574
			l22.613-6.059l6.05,22.613c1.34,5,5.564,8.704,10.684,9.378c0.563,0.077,1.126,0.111,1.673,0.111c4.54,0,8.772-2.398,11.085-6.4
			l22.869-39.603l22.861,39.595c2.313,4.002,6.554,6.4,11.085,6.4c0.546,0,1.109-0.034,1.673-0.111
			c5.129-0.674,9.353-4.378,10.684-9.378l6.05-22.613l22.613,6.059c4.975,1.374,10.325-0.478,13.466-4.574
			C398.797,438.886,399.155,433.28,396.57,428.792z M277.623,427.622l-1.374-5.111c-0.879-3.277-3.021-6.076-5.965-7.774
			c-1.963-1.126-4.173-1.715-6.4-1.715c-1.109,0-2.227,0.154-3.311,0.435l-5.129,1.374l11.494-19.9
			c6.613,5.41,14.259,9.472,22.69,11.904L277.623,427.622z M268.8,345.6c0-21.171,17.229-38.4,38.4-38.4s38.4,17.229,38.4,38.4
			S328.371,384,307.2,384S268.8,366.771,268.8,345.6z M353.826,413.466c-3.277-0.879-6.758-0.427-9.711,1.271
			c-2.935,1.698-5.086,4.497-5.965,7.774l-1.374,5.111l-11.998-20.787c8.422-2.424,16.068-6.485,22.682-11.896l11.494,19.9
			L353.826,413.466z"/>
	</g>
</g>
<g>
</g>
<g>
</g>
<g>
</g>
<g>
</g>
<g>
</g>
<g>
</g>
<g>
</g>
<g>
</g>
<g>
</g>
<g>
</g>
<g>
</g>
<g>
</g>
<g>
</g>
<g>
</g>
<g>
</g>
</svg>
