<?xml version="1.0"?>
<svg xmlns="http://www.w3.org/2000/svg" xmlns:xlink="http://www.w3.org/1999/xlink" viewBox="0 0 64 64" width="512" height="512"><defs><linearGradient id="New_Gradient_Swatch_1" x1="31.998" y1="1.185" x2="31.998" y2="65.458" gradientUnits="userSpaceOnUse"><stop offset="0" stop-color="#fff33b"/><stop offset="0.014" stop-color="#fee72e"/><stop offset="0.042" stop-color="#fed51b"/><stop offset="0.07" stop-color="#fdca10"/><stop offset="0.1" stop-color="#fdc70c"/><stop offset="0.4" stop-color="#f3903f"/><stop offset="0.8" stop-color="#ed683c"/><stop offset="1" stop-color="#e93e3a"/></linearGradient></defs><g id="Geography"><path d="M53,27A17,17,0,0,0,39,10.288V4.45A2.453,2.453,0,0,0,36.55,2,25.951,25.951,0,0,0,18.179,9.736,24.524,24.524,0,0,0,11,27.427,24.894,24.894,0,0,0,33,51.815V56H27a1,1,0,0,0-1,1v4a1,1,0,0,0,1,1H45a1,1,0,0,0,1-1V57a1,1,0,0,0-1-1H39V43.72A17.018,17.018,0,0,0,53,27ZM36,34h2a1,1,0,0,1,1,1,3.015,3.015,0,0,0,3,3,.978.978,0,0,1,.713.306A.965.965,0,0,1,43,39v1.268a14.882,14.882,0,0,1-5.12,1.619c-.293.036-.586.061-.88.08V39a3,3,0,0,0-3-3H32a1,1,0,0,1-1-1V29a1,1,0,0,0-1-1,1,1,0,0,1-1-1V25a.978.978,0,0,1,.306-.712A.957.957,0,0,1,30,24a3,3,0,0,0,3-3V19a3.015,3.015,0,0,0-3-3,1,1,0,0,1-1-1V13.739a14.883,14.883,0,0,1,5.135-1.618c.284-.039.571-.067.865-.087V17a3,3,0,0,0,3,3h2a1,1,0,0,1,1,1v2a1,1,0,0,1-1,1H36a3,3,0,0,0-3,3v4A3,3,0,0,0,36,34ZM27,15.018A3,3,0,0,0,30,18a.978.978,0,0,1,.713.306A.965.965,0,0,1,31,19v2a1,1,0,0,1-1,1,3.017,3.017,0,0,0-3,3v2a3.006,3.006,0,0,0,2,2.829V35a3,3,0,0,0,3,3h2a1,1,0,0,1,1,1v2.967c-.293-.019-.585-.044-.876-.079A14.99,14.99,0,0,1,27,15.018Zm6-4.73A16.979,16.979,0,0,0,33,43.72v2.043A19,19,0,0,1,33,8.237ZM51,27a15.013,15.013,0,0,1-6,11.986A3.013,3.013,0,0,0,42,36a.978.978,0,0,1-.713-.306A.965.965,0,0,1,41,35a3,3,0,0,0-3-3H36a1,1,0,0,1-1-1V27a1,1,0,0,1,1-1h4a3,3,0,0,0,3-3V21a3,3,0,0,0-3-3H38a1,1,0,0,1-1-1V12.034c.3.021.587.049.877.088A15,15,0,0,1,51,27ZM44,60H28V58H44Zm-9-4V50.91a1,1,0,0,0-.918-1A22.9,22.9,0,0,1,13,27.394a22.533,22.533,0,0,1,6.6-16.255A23.936,23.936,0,0,1,36.55,4a.451.451,0,0,1,.45.45v5.581a16.682,16.682,0,0,0-2,0V7.1a1,1,0,0,0-1.1-.995,21,21,0,0,0,0,41.79c.034,0,.067,0,.1,0a1,1,0,0,0,1-1V43.97c.331.019.662.03,1,.03s.669-.011,1-.03V56Z" style="fill:url(#New_Gradient_Swatch_1)"/></g></svg>
