<svg height="512" viewBox="0 0 64 64" width="512" xmlns="http://www.w3.org/2000/svg" xmlns:xlink="http://www.w3.org/1999/xlink"><linearGradient id="New_Gradient_Swatch_1" gradientUnits="userSpaceOnUse" x1="32" x2="32" y1="2.291" y2="65.635"><stop offset="0" stop-color="#fff33b"/><stop offset=".014" stop-color="#fee72e"/><stop offset=".042" stop-color="#fed51b"/><stop offset=".07" stop-color="#fdca10"/><stop offset=".1" stop-color="#fdc70c"/><stop offset=".4" stop-color="#f3903f"/><stop offset=".8" stop-color="#ed683c"/><stop offset="1" stop-color="#e93e3a"/></linearGradient><linearGradient id="New_Gradient_Swatch_1-3" x1="53.071" x2="53.071" xlink:href="#New_Gradient_Swatch_1" y1="2.291" y2="65.635"/><linearGradient id="New_Gradient_Swatch_1-4" gradientTransform="matrix(.173 .985 -.985 .173 34.004 -33.631)" x1="37.036" x2="37.036" xlink:href="#New_Gradient_Swatch_1" y1="2.291" y2="65.635"/><linearGradient id="New_Gradient_Swatch_1-5" gradientTransform="matrix(.342 .94 -.94 .342 32.04 -36.265)" x1="41.919" x2="41.919" xlink:href="#New_Gradient_Swatch_1" y1="2.291" y2="65.635"/><linearGradient id="New_Gradient_Swatch_1-6" gradientTransform="matrix(.94 .342 -.342 .94 11.12 -18.927)" x1="59.251" x2="59.251" xlink:href="#New_Gradient_Swatch_1" y1="2.291" y2="65.635"/><linearGradient id="New_Gradient_Swatch_1-7" gradientTransform="matrix(.985 .173 -.173 .985 5.591 -10.089)" x1="60.56" x2="60.56" xlink:href="#New_Gradient_Swatch_1" y1="2.291" y2="65.635"/><g id="Global"><path d="m32 60a28 28 0 0 1 0-56v-2a30 30 0 1 0 30 30h-2a28.032 28.032 0 0 1 -28 28z" fill="url(#New_Gradient_Swatch_1)"/><path d="m45.881 16.25a20.994 20.994 0 1 0 7.119 15.75 20.985 20.985 0 0 0 -7.119-15.75zm5.065 14.75h-8.969a39.693 39.693 0 0 0 -1.388-9.861 20.94 20.94 0 0 0 4.565-2.8 18.942 18.942 0 0 1 5.792 12.661zm-18.946 20c-2.242 0-4.57-2.583-6.134-6.962a18.643 18.643 0 0 1 12.268 0c-1.564 4.379-3.892 6.962-6.134 6.962zm7.977-6.227a18.932 18.932 0 0 1 3.645 2.227 18.943 18.943 0 0 1 -6.678 3.327 17.979 17.979 0 0 0 3.033-5.554zm-12.921 5.552a18.943 18.943 0 0 1 -6.678-3.325 18.932 18.932 0 0 1 3.645-2.225 17.979 17.979 0 0 0 3.033 5.55zm4.944-9.325a20.93 20.93 0 0 0 -6.731 1.131 37.8 37.8 0 0 1 -1.246-9.131h15.954a37.8 37.8 0 0 1 -1.246 9.131 20.93 20.93 0 0 0 -6.731-1.131zm-7.977-10a37.8 37.8 0 0 1 1.246-9.131 20.595 20.595 0 0 0 13.462 0 37.8 37.8 0 0 1 1.246 9.131zm7.977-18c2.242 0 4.57 2.583 6.134 6.962a18.643 18.643 0 0 1 -12.268 0c1.564-4.379 3.892-6.962 6.134-6.962zm-7.977 6.227a19.014 19.014 0 0 1 -3.648-2.227 19 19 0 0 1 6.694-3.341 17.963 17.963 0 0 0 -3.046 5.568zm12.908-5.568a19 19 0 0 1 6.694 3.341 19.014 19.014 0 0 1 -3.648 2.227 17.963 17.963 0 0 0 -3.046-5.568zm-18.085 4.675a20.94 20.94 0 0 0 4.565 2.805 39.693 39.693 0 0 0 -1.388 9.861h-8.969a18.942 18.942 0 0 1 5.792-12.666zm-5.795 14.666h8.972a39.693 39.693 0 0 0 1.388 9.861 21.013 21.013 0 0 0 -4.573 2.81 18.926 18.926 0 0 1 -5.787-12.671zm32.111 12.671a21.013 21.013 0 0 0 -4.573-2.81 39.693 39.693 0 0 0 1.388-9.861h8.972a18.926 18.926 0 0 1 -5.787 12.671z" fill="url(#New_Gradient_Swatch_1)"/><path d="m46 9.243v5.242a1 1 0 0 0 1.707.707l2.122-2.121 2.471 2.475-.633 4.454a1 1 0 0 0 .542 1.037 1.014 1.014 0 0 0 .447.105 1 1 0 0 0 .708-.293l8.485-8.485a1 1 0 0 0 -.849-1.7l-4.454.636-2.475-2.471 2.121-2.122a1 1 0 0 0 -.707-1.707h-5.242l-1.121-1.121a3.073 3.073 0 0 0 -4.243 0 3 3 0 0 0 0 4.243zm.293-3.95a1.023 1.023 0 0 1 1.414 0l1.415 1.414a1 1 0 0 0 .707.293h3.242l-1.121 1.122a1 1 0 0 0 0 1.414l3.535 3.535a1 1 0 0 0 .849.283l1.979-.283-4.242 4.242.283-1.979a1 1 0 0 0 -.283-.849l-3.535-3.535a1 1 0 0 0 -1.414 0l-1.122 1.121v-3.242a1 1 0 0 0 -.293-.707l-1.414-1.415a1 1 0 0 1 0-1.414z" fill="url(#New_Gradient_Swatch_1-3)"/><path d="m36.036 2.44h2v2h-2z" fill="url(#New_Gradient_Swatch_1-4)" transform="matrix(.173 -.985 .985 .173 27.228 39.319)"/><path d="m40.919 3.749h2v1.999h-2z" fill="url(#New_Gradient_Swatch_1-5)" transform="matrix(.342 -.94 .94 .342 23.115 42.513)"/><path d="m58.251 21.082h2v1.999h-2z" fill="url(#New_Gradient_Swatch_1-6)" transform="matrix(.94 -.342 .342 .94 -3.979 21.589)"/><path d="m59.56 25.964h2v2h-2z" fill="url(#New_Gradient_Swatch_1-7)" transform="matrix(.985 -.173 .173 .985 -3.757 10.906)"/></g></svg>