<svg height="512" viewBox="0 0 512 512" width="512" xmlns="http://www.w3.org/2000/svg"><g id="flat"><path d="m232 288h-16v-64h16a32 32 0 0 1 32 32 32 32 0 0 1 -32 32z" fill="#ea9d2d"/><g fill="#aae5c8"><path d="m421.64 420.755-11.955-10.634a231.943 231.943 0 0 0 0-308.242l11.955-10.633a247.943 247.943 0 0 1 0 329.509z"/><path d="m373.809 378.238-11.955-10.638a167.959 167.959 0 0 0 0-223.208l11.955-10.634a183.959 183.959 0 0 1 0 244.476z"/><path d="m325.978 335.721-11.956-10.634a103.971 103.971 0 0 0 0-138.174l11.956-10.634a119.975 119.975 0 0 1 0 159.442z"/></g><path d="m128 208v96h-56a48.086 48.086 0 0 1 -45.27-32 46.481 46.481 0 0 1 -2.06-8 48.1 48.1 0 0 1 0-16 46.481 46.481 0 0 1 2.06-8 47.958 47.958 0 0 1 9.5-16c.59-.66 1.2-1.31 1.83-1.94a47.813 47.813 0 0 1 33.94-14.06z" fill="#e8a73b"/><path d="m232 160v192l-24-11.08-16-7.38-64-29.54v-96l64-29.54 16-7.38z" fill="#fbb540"/><path d="m136 360-32 8-24-64 24-8 16 8 2.29 8z" fill="#e8a73b"/><path d="m80 208h48v96h-48z" fill="#f3af3e"/><path d="m56 248v16h-31.33a48.1 48.1 0 0 1 0-16z" fill="#d39836"/><path d="m56 224v16h-29.27a47.958 47.958 0 0 1 9.5-16z" fill="#d39836"/><path d="m56 272v16h-19.77a47.958 47.958 0 0 1 -9.5-16z" fill="#d39836"/><path d="m400 104v-8a8 8 0 0 1 8-8h72a8 8 0 0 1 8 8v8z" fill="#985713"/><rect fill="#dbdbdb" height="80" rx="8" width="88" x="400" y="96"/><rect fill="#4799cf" height="88" rx="8" width="88" x="352" y="320"/><rect fill="#3775a4" height="24" rx="12" width="24" x="432" y="120"/><path d="m456 88h16v16h-16z" fill="#f55648"/><path d="m456 88h16v8h-16z" fill="#dc4d41"/><rect fill="#f55648" height="72" rx="6.545" width="72" x="304" y="216"/><path d="m328 238.589v33.411l32-16z" fill="#b94137"/><path d="m416 350.589v-16h-24a8 8 0 0 0 -8 8v16h-8v16h8v16h16v-16h8v-16h-8v-8z" fill="#6cbae5"/><path d="m208 171.08v169.84l-16-7.38v-155.08z" fill="#eaeae8"/><path d="m444 152a20 20 0 1 1 20-20 20.023 20.023 0 0 1 -20 20zm0-24a4 4 0 1 0 4 4 4 4 0 0 0 -4-4z" fill="#428dc5"/><path d="m122.29 312h-39.29l-3-8h40z" fill="#d39836"/></g></svg>