<svg height="512" viewBox="0 0 64 64" width="512" xmlns="http://www.w3.org/2000/svg" xmlns:xlink="http://www.w3.org/1999/xlink"><linearGradient id="New_Gradient_Swatch_1" gradientUnits="userSpaceOnUse" x1="32" x2="32" y1="-1.137" y2="62.619"><stop offset="0" stop-color="#fff33b"/><stop offset=".014" stop-color="#fee72e"/><stop offset=".042" stop-color="#fed51b"/><stop offset=".07" stop-color="#fdca10"/><stop offset=".1" stop-color="#fdc70c"/><stop offset=".4" stop-color="#f3903f"/><stop offset=".8" stop-color="#ed683c"/><stop offset="1" stop-color="#e93e3a"/></linearGradient><linearGradient id="New_Gradient_Swatch_1-2" x1="34" x2="34" xlink:href="#New_Gradient_Swatch_1" y1="-1.137" y2="62.619"/><linearGradient id="New_Gradient_Swatch_1-3" x1="51" x2="51" xlink:href="#New_Gradient_Swatch_1" y1="-1.137" y2="62.619"/><linearGradient id="New_Gradient_Swatch_1-4" x1="48" x2="48" xlink:href="#New_Gradient_Swatch_1" y1="-1.137" y2="62.619"/><linearGradient id="New_Gradient_Swatch_1-5" x1="46" x2="46" xlink:href="#New_Gradient_Swatch_1" y1="-1.137" y2="62.619"/><g id="Presentations"><path d="m61 8a1 1 0 0 0 1-1v-4a1 1 0 0 0 -1-1h-58a1 1 0 0 0 -1 1v4a1 1 0 0 0 1 1h1v30h-1a1 1 0 0 0 -1 1v4a1 1 0 0 0 1 1h6.923l-1.852 4.628a1 1 0 0 0 .929 1.372h5v9a3 3 0 0 0 3 3h4a3 3 0 0 0 3-3v-9h5a1 1 0 0 0 .929-1.372l-1.852-4.628h25.923v10.184a3 3 0 1 0 2 0v-10.184h5a1 1 0 0 0 1-1v-4a1 1 0 0 0 -1-1h-1v-30zm-6 50a1 1 0 1 1 1-1 1 1 0 0 1 -1 1zm-51-54h56v2h-56zm0 38v-2h7.523l-.8 2zm11-23v-2.132l1.445.964a1 1 0 0 0 .555.168.981.981 0 0 0 .274-.039l5.726-1.635v2.674a3 3 0 0 1 -3 3h-2a3 3 0 0 1 -3-3zm.051-4.5a3 3 0 0 1 2.949-2.5h2a3 3 0 0 1 2.9 2.274l-5.73 1.638zm2.081 9.5-2.964 4.445 1.664 1.11 2.168-3.255v4.7h2v-4.7l2.168 3.252 1.664-1.11-2.964-4.442h4.132a1 1 0 0 1 1 1 1 1 0 0 0 1 1h2.343a1 1 0 0 0 .568-.178l5.8-4.01 1.418 1.417-6.458 4.771h-5.671a1 1 0 0 0 -1 1v5h-10v-5h-2v9h-2v-11a3 3 0 0 1 3-3zm-3.132 12h2v2h-2zm4 0h2v2h-2zm4 0h2v2h-2zm-6 23v-9h2v10h-1a1 1 0 0 1 -1-1zm6 0a1 1 0 0 1 -1 1h-1v-10h2zm-11.523-11 3.2-8h10.646l3.2 8zm49.523-6h-32.723l-.8-2h33.523zm-2-4h-32v-8h5a.993.993 0 0 0 .594-.2l7.657-5.657a1 1 0 0 0 .113-1.511l-.793-.793 7.843-7.839h7.586v-2h-5.586l1.293-1.293-1.414-1.414-2.707 2.707h-7.586v2h5.586l-6.429 6.429-.622-.621a1 1 0 0 0 -1.275-.116l-6.23 4.308h-1.2a3.006 3.006 0 0 0 -2.83-2h-1.026a4.948 4.948 0 0 0 1.026-3v-4a5.006 5.006 0 0 0 -5-5h-2a4.983 4.983 0 0 0 -4.315 2.52 3.011 3.011 0 1 0 -.685 5.3v1.18a4.948 4.948 0 0 0 1.026 3h-1.026a5.006 5.006 0 0 0 -5 5v11h-2v-30h52zm-45-23a1 1 0 1 1 -1-1 1 1 0 0 1 1 1z" fill="url(#New_Gradient_Swatch_1)"/><path d="m32 12h4v2h-4z" fill="url(#New_Gradient_Swatch_1-2)"/><path d="m48 18h6v2h-6z" fill="url(#New_Gradient_Swatch_1-3)"/><path d="m42 26h12v2h-12z" fill="url(#New_Gradient_Swatch_1-4)"/><path d="m38 32h16v2h-16z" fill="url(#New_Gradient_Swatch_1-5)"/></g></svg>