<?xml version="1.0" encoding="iso-8859-1"?>
<!-- Generator: Adobe Illustrator 19.0.0, SVG Export Plug-In . SVG Version: 6.00 Build 0)  -->
<svg version="1.1" id="Layer_1" xmlns="http://www.w3.org/2000/svg" xmlns:xlink="http://www.w3.org/1999/xlink" x="0px" y="0px" viewBox="0 0 512.007 512.007" style="enable-background:new 0 0 512.007 512.007;" fill="#6c757d" xml:space="preserve">
<g>
	<g>
		<path d="M256.007,179.204c-6.835,0-13.338,1.178-19.644,2.859l23.091,23.091c26.598,1.809,47.753,23.799,47.753,50.85
			c0,28.228-22.972,51.2-51.2,51.2c-27.051,0-49.033-21.154-50.85-47.744l-23.1-23.091c-1.672,6.306-2.85,12.8-2.85,19.635
			c0,42.419,34.381,76.8,76.8,76.8c42.419,0,76.8-34.381,76.8-76.8C332.807,213.584,298.426,179.204,256.007,179.204z"/>
	</g>
</g>
<g>
	<g>
		<path d="M265.061,246.958l-87.108-87.117c0.521-2.048,1.254-4.019,1.254-6.238v-51.2c0-6.793-2.697-13.303-7.501-18.099
			l-76.8-76.8c-4.89-4.898-11.443-7.501-18.108-7.501c-3.294,0-6.622,0.64-9.788,1.946c-9.566,3.968-15.804,13.303-15.804,23.654
			v25.6h-25.6c-10.351,0-19.686,6.238-23.654,15.804c-3.968,9.566-1.775,20.574,5.547,27.896l76.8,76.8
			c4.804,4.804,11.324,7.501,18.108,7.501h51.2c2.21,0,4.19-0.734,6.238-1.263l87.117,87.117c2.5,2.5,5.768,3.746,9.045,3.746
			c3.277,0,6.554-1.246,9.054-3.746C270.061,260.057,270.061,251.95,265.061,246.958z M153.607,153.604h-51.2l-76.8-76.8h51.2v-51.2
			l76.8,76.8V153.604z"/>
	</g>
</g>
<g>
	<g>
		<path d="M256.007,89.603c-18.039,0-35.371,2.961-51.644,8.269c0.137,1.519,0.444,2.995,0.444,4.531v22.579
			c15.889-6.229,33.126-9.779,51.2-9.779c77.636,0,140.8,63.164,140.8,140.8s-63.164,140.8-140.8,140.8s-140.8-63.164-140.8-140.8
			c0-18.074,3.55-35.311,9.779-51.2h-22.579c-1.536,0-3.012-0.307-4.531-0.444c-5.308,16.273-8.269,33.604-8.269,51.644
			c0,91.904,74.496,166.4,166.4,166.4s166.4-74.496,166.4-166.4S347.911,89.603,256.007,89.603z"/>
	</g>
</g>
<g>
	<g>
		<path d="M256.007,0.004c-38.716,0-75.281,8.841-108.177,24.226l19.26,19.26c27.383-11.503,57.412-17.886,88.917-17.886
			c127.044,0,230.4,103.356,230.4,230.4s-103.356,230.4-230.4,230.4s-230.4-103.356-230.4-230.4
			c0-31.505,6.391-61.542,17.886-88.917l-19.26-19.26C8.848,180.722,0.007,217.288,0.007,256.004c0,141.38,114.62,256,256,256
			s256-114.62,256-256S397.396,0.004,256.007,0.004z"/>
	</g>
</g>
<g>
</g>
<g>
</g>
<g>
</g>
<g>
</g>
<g>
</g>
<g>
</g>
<g>
</g>
<g>
</g>
<g>
</g>
<g>
</g>
<g>
</g>
<g>
</g>
<g>
</g>
<g>
</g>
<g>
</g>
</svg>
