<svg height="512" viewBox="0 0 64 64" width="512" xmlns="http://www.w3.org/2000/svg" xmlns:xlink="http://www.w3.org/1999/xlink"><linearGradient id="New_Gradient_Swatch_1" gradientUnits="userSpaceOnUse" x1="32" x2="32" y1="-1.137" y2="62.619"><stop offset="0" stop-color="#fff33b"/><stop offset=".014" stop-color="#fee72e"/><stop offset=".042" stop-color="#fed51b"/><stop offset=".07" stop-color="#fdca10"/><stop offset=".1" stop-color="#fdc70c"/><stop offset=".4" stop-color="#f3903f"/><stop offset=".8" stop-color="#ed683c"/><stop offset="1" stop-color="#e93e3a"/></linearGradient><linearGradient id="New_Gradient_Swatch_1-4" x1="51" x2="51" xlink:href="#New_Gradient_Swatch_1" y1="-1.137" y2="62.619"/><linearGradient id="New_Gradient_Swatch_1-5" x1="55" x2="55" xlink:href="#New_Gradient_Swatch_1" y1="-1.137" y2="62.619"/><g id="Teacher"><g fill="url(#New_Gradient_Swatch_1)"><path d="m34 24a1 1 0 0 0 1-1v-2h-2v1h-2v-1h-2v2a1 1 0 0 0 1 1z"/><path d="m61 44h-4v-1h3a1 1 0 0 0 1-1v-4a1 1 0 0 0 -1-1h-3a1 1 0 0 0 -1-1h-6a1 1 0 0 0 -1 1v7h-2v-9a5.006 5.006 0 0 0 -5-5h-6v-2.232a9.01 9.01 0 0 0 7-8.768v-3h3a1 1 0 0 0 1-1v-4a9.01 9.01 0 0 0 -9-9h-12a9.01 9.01 0 0 0 -9 9v4a1 1 0 0 0 1 1h3v3a9.01 9.01 0 0 0 7 8.768v2.232h-6a5.006 5.006 0 0 0 -5 5v9h-2v-3a1 1 0 0 0 -1-1h-1v-13a1 1 0 0 0 -1-1h-1v-3h-2v3h-1a1 1 0 0 0 -1 1v3h-3a1 1 0 0 0 -1 1v4h2v-3h2v8h-1a1 1 0 0 0 -1 1v3h-2a1 1 0 0 0 -1 1v6a1 1 0 0 0 1 1h1v9h2v-9h4v9h2v-9h11v9h2v-9h14v9h2v-9h11v9h2v-9h4v9h2v-9h1a1 1 0 0 0 1-1v-6a1 1 0 0 0 -1-1zm-2-5v2h-2v-2zm-8-1h4v6h-4zm-6-3v9h-4v-5h-2v5h-6v-6h5a1 1 0 0 0 1-1.01l-.049-4.99h3.049a3 3 0 0 1 3 3zm-8.01 1h-2.576l2.551-2.551zm-17.99-22v-3a7.008 7.008 0 0 1 7-7h12a7.008 7.008 0 0 1 7 7v3h-2v-2.121a5 5 0 0 0 -5.98-4.9l-5.02 1.001-5.02-1a5 5 0 0 0 -5.98 4.9v2.12zm19-2h-4a1 1 0 0 0 -1 1v1h-2v-1a1 1 0 0 0 -1-1h-4a1 1 0 0 0 -1 1v1h-2v-2.121a3 3 0 0 1 3.588-2.941l5.212 1.042a.959.959 0 0 0 .392 0l5.216-1.042a3 3 0 0 1 3.592 2.941v2.121h-2v-1a1 1 0 0 0 -1-1zm-1 2v2h-2v-2zm-8 0v2h-2v-2zm-6 5v-3h2v1a1 1 0 0 0 1 1h4a1 1 0 0 0 1-1v-1h2v1a1 1 0 0 0 1 1h4a1 1 0 0 0 1-1v-1h2v3a7.008 7.008 0 0 1 -7 7h-4a7.008 7.008 0 0 1 -7-7zm11 9v3a1 1 0 0 0 1 1h.586l-3.586 3.586-3.586-3.586h.586a1 1 0 0 0 1-1v-3zm-7 5.414 2.586 2.586h-2.586zm-8 1.586a3 3 0 0 1 3-3h3v5a1 1 0 0 0 1 1h5v6h-6v-5h-2v5h-4zm-10-7h2v2h-2zm0 4h2v8h-2zm-2 10h6v2h-6zm53 8h-56v-4h56z"/><path d="m31 54h2v7h-2z"/></g><path d="m49.52 34h2a1.043 1.043 0 0 1 .291-.747 3.086 3.086 0 0 0 0-3.836 1.108 1.108 0 0 1 0-1.5 2.972 2.972 0 0 0 .669-1.917h-2a1.046 1.046 0 0 1 -.292.75 3.088 3.088 0 0 0 0 3.836 1.107 1.107 0 0 1 0 1.5 2.965 2.965 0 0 0 -.668 1.914z" fill="url(#New_Gradient_Swatch_1-4)"/><path d="m53.52 34h2a1.043 1.043 0 0 1 .291-.747 3.086 3.086 0 0 0 0-3.836 1.108 1.108 0 0 1 0-1.5 2.972 2.972 0 0 0 .669-1.917h-2a1.046 1.046 0 0 1 -.292.75 3.088 3.088 0 0 0 0 3.836 1.107 1.107 0 0 1 0 1.5 2.965 2.965 0 0 0 -.668 1.914z" fill="url(#New_Gradient_Swatch_1-5)"/></g></svg>