<?xml version="1.0" encoding="iso-8859-1"?>
<!-- Generator: Adobe Illustrator 19.0.0, SVG Export Plug-In . SVG Version: 6.00 Build 0)  -->
<svg version="1.1" id="Layer_1" xmlns="http://www.w3.org/2000/svg" xmlns:xlink="http://www.w3.org/1999/xlink" x="0px" y="0px"
	 viewBox="0 0 512 512" style="enable-background:new 0 0 512 512;" fill="#6c757d" xml:space="preserve">
<g>
	<g>
		<path d="M137.728,192c-42.351,0-76.8,34.449-76.8,76.8c0,42.351,34.449,76.8,76.8,76.8c42.351,0,76.8-34.449,76.8-76.8
			C214.528,226.449,180.079,192,137.728,192z M137.728,320c-28.279,0-51.2-22.921-51.2-51.2c0-28.279,22.921-51.2,51.2-51.2
			c28.279,0,51.2,22.921,51.2,51.2C188.928,297.079,166.008,320,137.728,320z"/>
	</g>
</g>
<g>
	<g>
		<path d="M214.118,366.626c-2.219-12.177-12.817-21.026-25.19-21.026h-51.2h-51.2c-12.373,0-22.972,8.849-25.19,21.026L51.2,422.4
			h26.018l9.31-51.2h38.4v51.2h25.6v-51.2h38.4l9.31,51.2h26.018L214.118,366.626z"/>
	</g>
</g>
<g>
	<g>
		<path d="M460.8,115.2H384c0-14.14-11.46-25.6-25.6-25.6h-25.6V64c0-14.14-11.46-25.6-25.6-25.6H204.8
			c-14.14,0-25.6,11.46-25.6,25.6v25.6h-25.6c-14.14,0-25.6,11.46-25.6,25.6H51.2C22.972,115.2,0,138.172,0,166.4v256
			c0,28.228,22.972,51.2,51.2,51.2h409.6c28.228,0,51.2-22.972,51.2-51.2v-256C512,138.172,489.028,115.2,460.8,115.2z M153.6,115.2
			h51.2V64h102.4v51.2h51.2v25.6H153.6V115.2z M486.4,422.4c0,14.14-11.46,25.6-25.6,25.6H51.2c-14.14,0-25.6-11.46-25.6-25.6v-256
			c0-14.14,11.46-25.6,25.6-25.6H128c0,14.14,11.46,25.6,25.6,25.6h204.8c14.14,0,25.6-11.46,25.6-25.6h76.8
			c14.14,0,25.6,11.46,25.6,25.6V422.4z"/>
	</g>
</g>
<g>
	<g>
		<rect x="256" y="192" width="204.8" height="25.6"/>
	</g>
</g>
<g>
	<g>
		<rect x="256" y="243.2" width="128" height="25.6"/>
	</g>
</g>
<g>
	<g>
		<rect x="256" y="294.4" width="179.2" height="25.6"/>
	</g>
</g>
<g>
	<g>
		<rect x="256" y="345.6" width="102.4" height="25.6"/>
	</g>
</g>
<g>
	<g>
		<path d="M422.4,345.6c-21.205,0-38.4,17.195-38.4,38.4c0,21.205,17.195,38.4,38.4,38.4s38.4-17.195,38.4-38.4
			C460.8,362.795,443.605,345.6,422.4,345.6z M422.4,396.8c-7.057,0-12.8-5.743-12.8-12.8s5.743-12.8,12.8-12.8
			s12.8,5.743,12.8,12.8S429.457,396.8,422.4,396.8z"/>
	</g>
</g>
<g>
</g>
<g>
</g>
<g>
</g>
<g>
</g>
<g>
</g>
<g>
</g>
<g>
</g>
<g>
</g>
<g>
</g>
<g>
</g>
<g>
</g>
<g>
</g>
<g>
</g>
<g>
</g>
<g>
</g>
</svg>
